<svg xmlns="http://www.w3.org/2000/svg" viewBox="0 0 120 225.89">
  <g id="ef4fdb0c-463c-4f4b-b1c7-7d0cd2c566ef" data-name="图层 2">
    <g id="af66cf31-38fc-4c83-aa3d-ab2ef184741b" data-name="图层 3">
      <g id="ecb66491-e5b0-4b32-8802-7ed94b8ef90f" data-name="图层 2">
        <g id="fcc6e3bb-4bf0-451e-a026-9f8671b2e351" data-name="图层 1-2">
          <path d="M73.84,37A160.74,160.74,0,0,0,59.35,0,160.53,160.53,0,0,0,44.82,37.16,57.75,57.75,0,0,1,73.84,37Z" fill="#de2726"/>
          <path d="M76.64,50.36Q75.52,43.58,73.84,37a57.83,57.83,0,0,0-29,.16q-1.66,6.57-2.78,13.35A73.54,73.54,0,0,1,76.64,50.36Z" fill="#fff"/>
          <path d="M42,50.51A161.75,161.75,0,0,0,39.87,77V214.24l19.48-16.38,19.47,16.38V77a163.34,163.34,0,0,0-2.18-26.59A73.33,73.33,0,0,0,42,50.51Z" fill="#fff"/>
          <rect x="56.73" y="177.03" width="5.36" height="38.83" fill="#fff"/>
          <polygon points="82.87 216.8 94.98 225.89 94.98 219.39 82.87 210.31 82.87 216.8" fill="#fff"/>
          <polygon points="82.87 201.08 82.87 207.55 94.98 216.64 94.98 210.17 82.87 201.08" fill="#fff"/>
          <polygon points="94.98 184.05 82.87 174.96 82.87 198.33 94.98 207.42 94.98 184.05" fill="#fff"/>
          <polygon points="35.33 216.8 23.21 225.89 23.21 219.39 35.33 210.31 35.33 216.8" fill="#fff"/>
          <polygon points="35.33 201.08 35.33 207.55 23.21 216.64 23.21 210.17 35.33 201.08" fill="#fff"/>
          <polygon points="23.21 184.05 35.33 174.96 35.33 198.33 23.21 207.42 23.21 184.05" fill="#fff"/>
          <path d="M42.78,46.34c-.12.66-.25,1.32-.38,2,8.2-2.46,26.07-2.41,33.84.16-.12-.67-.25-1.34-.39-2C67.61,44.16,51.4,44.09,42.78,46.34Z" fill="#e7211a"/>
          <path d="M96.06,169.1l-36.7-26.65L22.68,169.1l2.41-7.47L36.7,126,0,99.32H45.34l14-43.13,2.43,7.47L73.4,99.32h45.3L112.36,104,82,126ZM15.72,104.43l27,19.6-.57,1.77-9.73,29.93,27-19.61,1.5,1.11,25.47,18.5-9.72-29.91L76,124.05l1.55-1.12L103,104.43H69.67l-.58-1.76L59.36,72.72l-10.3,31.71Z" fill="#f5bd1d"/>
          <polygon points="59.37 118.6 59.37 118.61 59.37 118.61 59.37 118.61 59.37 118.6" fill="#fff"/>
          <polygon points="59.37 118.6 59.37 118.61 79.04 125 79.04 124.99 110.85 101.88 59.37 118.6 59.37 118.6" fill="#de2726"/>
          <polygon points="59.37 118.61 91.2 162.41 79.04 125 59.37 118.61 59.37 118.61" fill="#943028"/>
          <polygon points="59.37 118.6 59.37 118.6 59.37 118.6 59.37 118.61 59.37 118.6" fill="#fff"/>
          <polygon points="59.37 118.6 59.37 118.6 59.37 118.6 59.37 118.6" fill="#fff"/>
          <polygon points="59.37 118.6 59.36 118.6 59.37 118.61 59.37 118.61 59.37 118.6" fill="#fff"/>
          <polygon points="59.37 118.61 59.37 118.61 59.37 118.61 59.37 118.61" fill="#fff"/>
          <polygon points="59.37 118.6 47.2 101.86 7.85 101.86 7.87 101.88 59.36 118.6 59.37 118.6" fill="#de2726"/>
          <polygon points="110.85 101.88 110.87 101.86 71.53 101.86 59.37 118.6 110.85 101.88" fill="#943028"/>
          <polygon points="59.36 118.6 39.69 124.99 39.69 124.99 27.53 162.42 27.54 162.41 59.37 118.61 59.36 118.6" fill="#de2726"/>
          <polygon points="91.2 162.41 59.37 118.61 59.37 139.29 91.2 162.42 91.2 162.41" fill="#de2726"/>
          <polygon points="59.37 118.61 59.37 118.61 27.54 162.41 59.36 139.29 59.37 139.29 59.37 118.61 59.37 118.61" fill="#943028"/>
          <polygon points="59.37 118.6 71.53 101.86 71.52 101.86 59.37 64.45 59.37 118.6 59.37 118.6" fill="#de2726"/>
          <polygon points="59.37 118.6 59.37 64.45 59.36 64.44 47.2 101.86 47.2 101.86 59.37 118.6 59.37 118.6" fill="#943028"/>
          <polygon points="7.87 101.88 39.69 124.99 59.36 118.6 7.87 101.88" fill="#943028"/>
          <path d="M52.4,111.14H56a15.61,15.61,0,0,1-.91,6.31c-1.06,2.37-4,3.9-4.44,3.43s1.21-2.41,1.45-4.6S52.4,111.14,52.4,111.14Z" fill="#f5bd1d"/>
          <path d="M66.06,112.81A8.08,8.08,0,0,1,67.51,107l-.19-.78L65.15,105,64,106.46H52.45v2.41h10.7a17,17,0,0,0-.39,4.92c.15,3.83,3.05,7.33,3.05,7.33l2.52-1.93A15.39,15.39,0,0,1,66.06,112.81Z" fill="#f5bd1d"/>
          <polygon points="66.6 123.92 65.75 125.63 51.02 125.63 51.02 128.99 67.84 128.99 67.84 128.99 69.25 125.52 69.25 124.75 66.6 123.92" fill="#f5bd1d"/>
        </g>
      </g>
    </g>
  </g>
</svg>
